<svg xmlns="http://www.w3.org/2000/svg" xmlns:xlink="http://www.w3.org/1999/xlink" width="100" zoomAndPan="magnify" viewBox="0 0 75 30.000001" height="40" preserveAspectRatio="xMidYMid meet" version="1.0"><defs><g/><clipPath id="dd795299f3"><path d="M 1.210938 16 L 6 16 L 6 23.371094 L 1.210938 23.371094 Z M 1.210938 16 " clip-rule="nonzero"/></clipPath><clipPath id="4c841fd256"><path d="M 1.210938 2.675781 L 13.628906 2.675781 L 13.628906 16 L 1.210938 16 Z M 1.210938 2.675781 " clip-rule="nonzero"/></clipPath></defs><g clip-path="url(#dd795299f3)"><path fill="#4f39f6" d="M 5.378906 16.582031 L 5.378906 19.363281 C 5.378906 21.664062 3.511719 23.53125 1.210938 23.53125 L 1.210938 16.582031 Z M 5.378906 16.582031 " fill-opacity="1" fill-rule="nonzero"/></g><g clip-path="url(#4c841fd256)"><path fill="#4f39f6" d="M 7.464844 2.683594 L 1.210938 2.683594 C 1.210938 4.988281 3.078125 6.855469 5.378906 6.855469 L 7.425781 6.855469 C 8.554688 6.855469 9.527344 7.773438 9.546875 8.902344 C 9.570312 10.066406 8.625 11.023438 7.464844 11.023438 L 5.378906 11.023438 C 5.378906 9.488281 4.136719 8.242188 2.601562 8.242188 L 1.210938 8.242188 L 1.210938 15.191406 L 7.464844 15.191406 C 10.917969 15.191406 13.71875 12.394531 13.71875 8.9375 C 13.71875 5.484375 10.917969 2.683594 7.464844 2.683594 Z M 7.464844 2.683594 " fill-opacity="1" fill-rule="nonzero"/></g><g fill="#4f39f6" fill-opacity="1"><g transform="translate(12.130918, 22.948864)"><g><path d="M 4.53125 -8.515625 C 4.769531 -8.515625 5.007812 -8.488281 5.25 -8.4375 C 5.488281 -8.394531 5.710938 -8.328125 5.921875 -8.234375 C 6.128906 -8.148438 6.304688 -8.039062 6.453125 -7.90625 C 6.929688 -7.519531 7.28125 -7.019531 7.5 -6.40625 C 7.726562 -5.789062 7.84375 -5.144531 7.84375 -4.46875 C 7.84375 -3.90625 7.769531 -3.351562 7.625 -2.8125 C 7.476562 -2.28125 7.265625 -1.796875 6.984375 -1.359375 C 6.703125 -0.929688 6.359375 -0.585938 5.953125 -0.328125 C 5.546875 -0.078125 5.082031 0.046875 4.5625 0.046875 C 4.039062 0.046875 3.550781 -0.0664062 3.09375 -0.296875 C 2.644531 -0.523438 2.25 -0.835938 1.90625 -1.234375 C 1.5625 -1.628906 1.296875 -2.082031 1.109375 -2.59375 C 0.921875 -3.113281 0.828125 -3.65625 0.828125 -4.21875 C 0.828125 -4.757812 0.90625 -5.285156 1.0625 -5.796875 C 1.226562 -6.304688 1.46875 -6.765625 1.78125 -7.171875 C 2.101562 -7.585938 2.492188 -7.914062 2.953125 -8.15625 C 3.421875 -8.394531 3.945312 -8.515625 4.53125 -8.515625 Z M 2.265625 -4.328125 C 2.265625 -3.816406 2.351562 -3.328125 2.53125 -2.859375 C 2.707031 -2.398438 2.960938 -2.023438 3.296875 -1.734375 C 3.640625 -1.453125 4.046875 -1.3125 4.515625 -1.3125 C 4.847656 -1.3125 5.132812 -1.398438 5.375 -1.578125 C 5.613281 -1.765625 5.8125 -2.007812 5.96875 -2.3125 C 6.125 -2.625 6.238281 -2.960938 6.3125 -3.328125 C 6.382812 -3.691406 6.421875 -4.046875 6.421875 -4.390625 C 6.421875 -5.023438 6.316406 -5.5625 6.109375 -6 C 5.910156 -6.445312 5.640625 -6.789062 5.296875 -7.03125 C 5.160156 -7.070312 5.023438 -7.097656 4.890625 -7.109375 C 4.765625 -7.128906 4.632812 -7.140625 4.5 -7.140625 C 4.144531 -7.140625 3.828125 -7.0625 3.546875 -6.90625 C 3.273438 -6.757812 3.039062 -6.550781 2.84375 -6.28125 C 2.65625 -6.019531 2.507812 -5.722656 2.40625 -5.390625 C 2.3125 -5.054688 2.265625 -4.703125 2.265625 -4.328125 Z M 2.265625 -4.328125 "/></g></g></g><g fill="#4f39f6" fill-opacity="1"><g transform="translate(20.781659, 22.948864)"><g><path d="M 1.546875 -7.84375 C 1.554688 -8.0625 1.632812 -8.222656 1.78125 -8.328125 C 1.925781 -8.441406 2.097656 -8.5 2.296875 -8.5 C 2.484375 -8.5 2.644531 -8.445312 2.78125 -8.34375 C 2.914062 -8.25 2.984375 -8.097656 2.984375 -7.890625 C 2.984375 -7.828125 2.984375 -7.742188 2.984375 -7.640625 C 2.984375 -7.546875 2.976562 -7.4375 2.96875 -7.3125 C 2.96875 -7.195312 2.957031 -7.066406 2.9375 -6.921875 C 3.238281 -7.441406 3.582031 -7.828125 3.96875 -8.078125 C 4.351562 -8.335938 4.785156 -8.46875 5.265625 -8.46875 C 5.503906 -8.46875 5.757812 -8.429688 6.03125 -8.359375 C 6.3125 -8.296875 6.597656 -8.175781 6.890625 -8 C 7.015625 -7.925781 7.101562 -7.835938 7.15625 -7.734375 C 7.207031 -7.628906 7.226562 -7.503906 7.21875 -7.359375 C 7.207031 -7.128906 7.132812 -6.953125 7 -6.828125 C 6.875 -6.710938 6.71875 -6.65625 6.53125 -6.65625 C 6.425781 -6.65625 6.328125 -6.675781 6.234375 -6.71875 C 6.148438 -6.757812 6.066406 -6.804688 5.984375 -6.859375 C 5.878906 -6.921875 5.769531 -6.976562 5.65625 -7.03125 C 5.539062 -7.09375 5.394531 -7.125 5.21875 -7.125 C 4.601562 -7.125 4.113281 -6.816406 3.75 -6.203125 C 3.382812 -5.597656 3.082031 -4.820312 2.84375 -3.875 C 2.832031 -3.519531 2.820312 -3.1875 2.8125 -2.875 C 2.8125 -2.570312 2.804688 -2.28125 2.796875 -2 C 2.785156 -1.71875 2.773438 -1.445312 2.765625 -1.1875 C 2.765625 -0.925781 2.765625 -0.671875 2.765625 -0.421875 C 2.765625 -0.285156 2.726562 -0.171875 2.65625 -0.078125 C 2.59375 0.015625 2.503906 0.0820312 2.390625 0.125 C 2.285156 0.175781 2.171875 0.203125 2.046875 0.203125 C 1.816406 0.203125 1.644531 0.132812 1.53125 0 C 1.414062 -0.132812 1.335938 -0.3125 1.296875 -0.53125 C 1.253906 -0.757812 1.234375 -1.003906 1.234375 -1.265625 C 1.234375 -1.472656 1.238281 -1.734375 1.25 -2.046875 C 1.269531 -2.359375 1.289062 -2.671875 1.3125 -2.984375 C 1.34375 -3.296875 1.375 -3.554688 1.40625 -3.765625 Z M 1.546875 -7.84375 "/></g></g></g><g fill="#4f39f6" fill-opacity="1"><g transform="translate(28.029576, 22.948864)"><g><path d="M 2.0625 -10.078125 C 2.082031 -10.285156 2.15625 -10.441406 2.28125 -10.546875 C 2.414062 -10.648438 2.578125 -10.703125 2.765625 -10.703125 C 2.890625 -10.703125 3.007812 -10.675781 3.125 -10.625 C 3.25 -10.582031 3.347656 -10.515625 3.421875 -10.421875 C 3.492188 -10.328125 3.519531 -10.207031 3.5 -10.0625 C 3.414062 -9.394531 3.34375 -8.753906 3.28125 -8.140625 C 3.226562 -7.523438 3.1875 -6.914062 3.15625 -6.3125 C 3.125 -5.707031 3.109375 -5.082031 3.109375 -4.4375 C 3.117188 -3.65625 3.148438 -3.023438 3.203125 -2.546875 C 3.265625 -2.078125 3.335938 -1.738281 3.421875 -1.53125 C 3.503906 -1.320312 3.578125 -1.21875 3.640625 -1.21875 C 3.734375 -1.21875 3.847656 -1.273438 3.984375 -1.390625 C 4.128906 -1.515625 4.269531 -1.648438 4.40625 -1.796875 C 4.550781 -1.953125 4.65625 -2.066406 4.71875 -2.140625 C 4.78125 -2.210938 4.847656 -2.257812 4.921875 -2.28125 C 5.003906 -2.3125 5.082031 -2.328125 5.15625 -2.328125 C 5.28125 -2.328125 5.394531 -2.296875 5.5 -2.234375 C 5.601562 -2.171875 5.6875 -2.085938 5.75 -1.984375 C 5.8125 -1.878906 5.84375 -1.765625 5.84375 -1.640625 C 5.84375 -1.566406 5.820312 -1.488281 5.78125 -1.40625 C 5.75 -1.320312 5.691406 -1.226562 5.609375 -1.125 C 5.398438 -0.851562 5.171875 -0.625 4.921875 -0.4375 C 4.679688 -0.25 4.441406 -0.109375 4.203125 -0.015625 C 3.972656 0.078125 3.742188 0.125 3.515625 0.125 C 3.109375 0.125 2.757812 -0.0195312 2.46875 -0.3125 C 2.1875 -0.613281 1.988281 -1.082031 1.875 -1.71875 C 1.800781 -2.175781 1.742188 -2.632812 1.703125 -3.09375 C 1.671875 -3.5625 1.65625 -4.023438 1.65625 -4.484375 C 1.65625 -5.117188 1.671875 -5.726562 1.703125 -6.3125 C 1.734375 -6.894531 1.78125 -7.488281 1.84375 -8.09375 C 1.90625 -8.707031 1.976562 -9.367188 2.0625 -10.078125 Z M 1.25 -6.9375 C 1.050781 -6.925781 0.894531 -6.984375 0.78125 -7.109375 C 0.675781 -7.242188 0.625 -7.40625 0.625 -7.59375 C 0.625 -7.769531 0.675781 -7.921875 0.78125 -8.046875 C 0.894531 -8.171875 1.050781 -8.238281 1.25 -8.25 C 1.519531 -8.269531 1.800781 -8.285156 2.09375 -8.296875 C 2.394531 -8.316406 2.707031 -8.328125 3.03125 -8.328125 C 3.351562 -8.335938 3.695312 -8.34375 4.0625 -8.34375 C 4.4375 -8.351562 4.835938 -8.359375 5.265625 -8.359375 C 5.441406 -8.359375 5.59375 -8.296875 5.71875 -8.171875 C 5.84375 -8.046875 5.910156 -7.882812 5.921875 -7.6875 C 5.921875 -7.5 5.851562 -7.34375 5.71875 -7.21875 C 5.582031 -7.101562 5.429688 -7.046875 5.265625 -7.046875 C 4.828125 -7.046875 4.453125 -7.039062 4.140625 -7.03125 C 3.835938 -7.03125 3.546875 -7.023438 3.265625 -7.015625 C 2.984375 -7.015625 2.6875 -7.003906 2.375 -6.984375 C 2.0625 -6.972656 1.6875 -6.957031 1.25 -6.9375 Z M 1.25 -6.9375 "/></g></g></g><g fill="#4f39f6" fill-opacity="1"><g transform="translate(34.389034, 22.948864)"><g><path d="M 4.53125 -8.515625 C 4.769531 -8.515625 5.007812 -8.488281 5.25 -8.4375 C 5.488281 -8.394531 5.710938 -8.328125 5.921875 -8.234375 C 6.128906 -8.148438 6.304688 -8.039062 6.453125 -7.90625 C 6.929688 -7.519531 7.28125 -7.019531 7.5 -6.40625 C 7.726562 -5.789062 7.84375 -5.144531 7.84375 -4.46875 C 7.84375 -3.90625 7.769531 -3.351562 7.625 -2.8125 C 7.476562 -2.28125 7.265625 -1.796875 6.984375 -1.359375 C 6.703125 -0.929688 6.359375 -0.585938 5.953125 -0.328125 C 5.546875 -0.078125 5.082031 0.046875 4.5625 0.046875 C 4.039062 0.046875 3.550781 -0.0664062 3.09375 -0.296875 C 2.644531 -0.523438 2.25 -0.835938 1.90625 -1.234375 C 1.5625 -1.628906 1.296875 -2.082031 1.109375 -2.59375 C 0.921875 -3.113281 0.828125 -3.65625 0.828125 -4.21875 C 0.828125 -4.757812 0.90625 -5.285156 1.0625 -5.796875 C 1.226562 -6.304688 1.46875 -6.765625 1.78125 -7.171875 C 2.101562 -7.585938 2.492188 -7.914062 2.953125 -8.15625 C 3.421875 -8.394531 3.945312 -8.515625 4.53125 -8.515625 Z M 2.265625 -4.328125 C 2.265625 -3.816406 2.351562 -3.328125 2.53125 -2.859375 C 2.707031 -2.398438 2.960938 -2.023438 3.296875 -1.734375 C 3.640625 -1.453125 4.046875 -1.3125 4.515625 -1.3125 C 4.847656 -1.3125 5.132812 -1.398438 5.375 -1.578125 C 5.613281 -1.765625 5.8125 -2.007812 5.96875 -2.3125 C 6.125 -2.625 6.238281 -2.960938 6.3125 -3.328125 C 6.382812 -3.691406 6.421875 -4.046875 6.421875 -4.390625 C 6.421875 -5.023438 6.316406 -5.5625 6.109375 -6 C 5.910156 -6.445312 5.640625 -6.789062 5.296875 -7.03125 C 5.160156 -7.070312 5.023438 -7.097656 4.890625 -7.109375 C 4.765625 -7.128906 4.632812 -7.140625 4.5 -7.140625 C 4.144531 -7.140625 3.828125 -7.0625 3.546875 -6.90625 C 3.273438 -6.757812 3.039062 -6.550781 2.84375 -6.28125 C 2.65625 -6.019531 2.507812 -5.722656 2.40625 -5.390625 C 2.3125 -5.054688 2.265625 -4.703125 2.265625 -4.328125 Z M 2.265625 -4.328125 "/></g></g></g><g fill="#4f39f6" fill-opacity="1"><g transform="translate(43.039775, 22.948864)"><g><path d="M 11.4375 -10.515625 C 11.5 -10.460938 11.546875 -10.394531 11.578125 -10.3125 C 11.617188 -10.226562 11.640625 -10.144531 11.640625 -10.0625 C 11.640625 -9.9375 11.609375 -9.816406 11.546875 -9.703125 C 11.484375 -9.585938 11.398438 -9.492188 11.296875 -9.421875 C 11.203125 -9.347656 11.09375 -9.3125 10.96875 -9.3125 C 10.800781 -9.3125 10.660156 -9.363281 10.546875 -9.46875 C 10.441406 -9.570312 10.34375 -9.660156 10.25 -9.734375 C 9.78125 -10.085938 9.304688 -10.347656 8.828125 -10.515625 C 8.347656 -10.691406 7.863281 -10.78125 7.375 -10.78125 C 6.675781 -10.78125 6.0625 -10.648438 5.53125 -10.390625 C 5 -10.128906 4.539062 -9.785156 4.15625 -9.359375 C 3.78125 -8.941406 3.46875 -8.488281 3.21875 -8 C 2.976562 -7.519531 2.796875 -7.046875 2.671875 -6.578125 C 2.554688 -6.117188 2.5 -5.722656 2.5 -5.390625 C 2.5 -5.003906 2.570312 -4.566406 2.71875 -4.078125 C 2.875 -3.585938 3.109375 -3.109375 3.421875 -2.640625 C 3.742188 -2.179688 4.144531 -1.800781 4.625 -1.5 C 5.101562 -1.195312 5.675781 -1.046875 6.34375 -1.046875 C 6.90625 -1.046875 7.429688 -1.15625 7.921875 -1.375 C 8.410156 -1.601562 8.84375 -1.90625 9.21875 -2.28125 C 9.601562 -2.65625 9.910156 -3.070312 10.140625 -3.53125 C 10.378906 -4 10.523438 -4.484375 10.578125 -4.984375 C 10.234375 -4.984375 9.890625 -4.984375 9.546875 -4.984375 C 9.203125 -4.992188 8.851562 -5 8.5 -5 C 8.15625 -5 7.8125 -5 7.46875 -5 C 7.269531 -5 7.113281 -5.0625 7 -5.1875 C 6.882812 -5.320312 6.820312 -5.488281 6.8125 -5.6875 C 6.800781 -5.875 6.859375 -6.03125 6.984375 -6.15625 C 7.117188 -6.28125 7.28125 -6.34375 7.46875 -6.34375 C 8.113281 -6.34375 8.757812 -6.335938 9.40625 -6.328125 C 10.0625 -6.328125 10.710938 -6.328125 11.359375 -6.328125 C 11.617188 -6.316406 11.789062 -6.222656 11.875 -6.046875 C 11.96875 -5.867188 12.015625 -5.660156 12.015625 -5.421875 C 12.015625 -4.691406 11.863281 -3.988281 11.5625 -3.3125 C 11.269531 -2.632812 10.859375 -2.019531 10.328125 -1.46875 C 9.796875 -0.925781 9.1875 -0.492188 8.5 -0.171875 C 7.820312 0.140625 7.101562 0.296875 6.34375 0.296875 C 5.59375 0.296875 4.894531 0.144531 4.25 -0.15625 C 3.613281 -0.457031 3.054688 -0.875 2.578125 -1.40625 C 2.097656 -1.9375 1.722656 -2.546875 1.453125 -3.234375 C 1.191406 -3.921875 1.0625 -4.648438 1.0625 -5.421875 C 1.0625 -6.328125 1.234375 -7.179688 1.578125 -7.984375 C 1.921875 -8.796875 2.390625 -9.515625 2.984375 -10.140625 C 3.585938 -10.773438 4.273438 -11.269531 5.046875 -11.625 C 5.816406 -11.976562 6.628906 -12.15625 7.484375 -12.15625 C 8.140625 -12.15625 8.804688 -12.023438 9.484375 -11.765625 C 10.160156 -11.515625 10.8125 -11.097656 11.4375 -10.515625 Z M 11.4375 -10.515625 "/></g></g></g><g fill="#4f39f6" fill-opacity="1"><g transform="translate(56.101612, 22.948864)"><g><path d="M 4.390625 0 C 3.828125 0 3.320312 -0.113281 2.875 -0.34375 C 2.425781 -0.570312 2.046875 -0.878906 1.734375 -1.265625 C 1.421875 -1.660156 1.179688 -2.097656 1.015625 -2.578125 C 0.859375 -3.066406 0.78125 -3.554688 0.78125 -4.046875 C 0.78125 -4.578125 0.882812 -5.101562 1.09375 -5.625 C 1.3125 -6.144531 1.609375 -6.625 1.984375 -7.0625 C 2.367188 -7.5 2.804688 -7.847656 3.296875 -8.109375 C 3.796875 -8.367188 4.332031 -8.5 4.90625 -8.5 C 5.351562 -8.5 5.742188 -8.40625 6.078125 -8.21875 C 6.421875 -8.039062 6.6875 -7.796875 6.875 -7.484375 C 7.070312 -7.171875 7.171875 -6.804688 7.171875 -6.390625 C 7.171875 -5.953125 7.0625 -5.535156 6.84375 -5.140625 C 6.625 -4.753906 6.316406 -4.441406 5.921875 -4.203125 C 5.390625 -3.847656 4.8125 -3.597656 4.1875 -3.453125 C 3.5625 -3.316406 2.925781 -3.238281 2.28125 -3.21875 C 2.363281 -2.914062 2.5 -2.617188 2.6875 -2.328125 C 2.875 -2.035156 3.113281 -1.789062 3.40625 -1.59375 C 3.707031 -1.40625 4.054688 -1.3125 4.453125 -1.3125 C 4.835938 -1.3125 5.207031 -1.421875 5.5625 -1.640625 C 5.925781 -1.867188 6.238281 -2.128906 6.5 -2.421875 C 6.5625 -2.503906 6.628906 -2.5625 6.703125 -2.59375 C 6.785156 -2.625 6.863281 -2.640625 6.9375 -2.640625 C 7.0625 -2.640625 7.175781 -2.609375 7.28125 -2.546875 C 7.382812 -2.484375 7.46875 -2.398438 7.53125 -2.296875 C 7.59375 -2.191406 7.625 -2.078125 7.625 -1.953125 C 7.632812 -1.867188 7.625 -1.785156 7.59375 -1.703125 C 7.5625 -1.628906 7.507812 -1.554688 7.4375 -1.484375 C 7.050781 -1.066406 6.597656 -0.710938 6.078125 -0.421875 C 5.566406 -0.140625 5.003906 0 4.390625 0 Z M 2.21875 -4.484375 C 2.632812 -4.503906 3.019531 -4.535156 3.375 -4.578125 C 3.726562 -4.628906 4.09375 -4.734375 4.46875 -4.890625 C 4.8125 -5.023438 5.113281 -5.21875 5.375 -5.46875 C 5.632812 -5.726562 5.765625 -6.039062 5.765625 -6.40625 C 5.765625 -6.550781 5.726562 -6.679688 5.65625 -6.796875 C 5.59375 -6.921875 5.492188 -7.019531 5.359375 -7.09375 C 5.234375 -7.175781 5.066406 -7.21875 4.859375 -7.21875 C 4.523438 -7.21875 4.207031 -7.132812 3.90625 -6.96875 C 3.613281 -6.800781 3.347656 -6.582031 3.109375 -6.3125 C 2.867188 -6.050781 2.671875 -5.757812 2.515625 -5.4375 C 2.367188 -5.113281 2.269531 -4.796875 2.21875 -4.484375 Z M 2.21875 -4.484375 "/></g></g></g><g fill="#4f39f6" fill-opacity="1"><g transform="translate(64.378268, 22.948864)"><g><path d="M 1.59375 -8.15625 C 1.625 -8.332031 1.707031 -8.457031 1.84375 -8.53125 C 1.976562 -8.613281 2.125 -8.65625 2.28125 -8.65625 C 2.46875 -8.65625 2.628906 -8.59375 2.765625 -8.46875 C 2.910156 -8.34375 2.984375 -8.195312 2.984375 -8.03125 C 2.984375 -7.976562 2.972656 -7.867188 2.953125 -7.703125 C 2.929688 -7.535156 2.910156 -7.351562 2.890625 -7.15625 C 2.867188 -6.957031 2.851562 -6.773438 2.84375 -6.609375 C 3.050781 -6.984375 3.285156 -7.316406 3.546875 -7.609375 C 3.804688 -7.898438 4.101562 -8.128906 4.4375 -8.296875 C 4.769531 -8.460938 5.132812 -8.546875 5.53125 -8.546875 C 6.457031 -8.546875 7.144531 -8.210938 7.59375 -7.546875 C 8.050781 -6.890625 8.28125 -6.019531 8.28125 -4.9375 C 8.28125 -4.40625 8.242188 -3.890625 8.171875 -3.390625 C 8.097656 -2.890625 8.023438 -2.394531 7.953125 -1.90625 C 7.878906 -1.425781 7.84375 -0.945312 7.84375 -0.46875 C 7.84375 -0.269531 7.769531 -0.113281 7.625 0 C 7.488281 0.113281 7.320312 0.171875 7.125 0.171875 C 6.925781 0.171875 6.753906 0.113281 6.609375 0 C 6.472656 -0.113281 6.40625 -0.273438 6.40625 -0.484375 C 6.40625 -0.992188 6.441406 -1.484375 6.515625 -1.953125 C 6.597656 -2.421875 6.675781 -2.890625 6.75 -3.359375 C 6.820312 -3.835938 6.859375 -4.335938 6.859375 -4.859375 C 6.859375 -5.484375 6.789062 -5.960938 6.65625 -6.296875 C 6.53125 -6.628906 6.351562 -6.859375 6.125 -6.984375 C 5.90625 -7.117188 5.65625 -7.1875 5.375 -7.1875 C 5.019531 -7.1875 4.703125 -7.0625 4.421875 -6.8125 C 4.140625 -6.570312 3.894531 -6.265625 3.6875 -5.890625 C 3.476562 -5.523438 3.300781 -5.140625 3.15625 -4.734375 C 3.019531 -4.328125 2.910156 -3.972656 2.828125 -3.671875 C 2.828125 -3.097656 2.820312 -2.535156 2.8125 -1.984375 C 2.800781 -1.441406 2.78125 -0.929688 2.75 -0.453125 C 2.738281 -0.273438 2.664062 -0.125 2.53125 0 C 2.394531 0.125 2.21875 0.1875 2 0.1875 C 1.789062 0.1875 1.628906 0.125 1.515625 0 C 1.398438 -0.113281 1.320312 -0.269531 1.28125 -0.46875 C 1.238281 -0.664062 1.21875 -0.878906 1.21875 -1.109375 C 1.21875 -1.472656 1.234375 -1.859375 1.265625 -2.265625 C 1.296875 -2.671875 1.351562 -3.066406 1.4375 -3.453125 C 1.425781 -4.035156 1.421875 -4.5625 1.421875 -5.03125 C 1.421875 -5.5 1.421875 -5.914062 1.421875 -6.28125 C 1.429688 -6.65625 1.445312 -6.992188 1.46875 -7.296875 C 1.5 -7.597656 1.539062 -7.882812 1.59375 -8.15625 Z M 1.59375 -8.15625 "/></g></g></g></svg>